<svg xmlns="http://www.w3.org/2000/svg" version="1.1" viewBox="-5.0 -10.0 110.0 135.0">
 <path d="m50 8.332c-22.988 0-41.668 18.676-41.668 41.668 0 22.988 18.676 41.668 41.668 41.668 22.988 0 41.668-18.676 41.668-41.668 0-22.988-18.676-41.668-41.668-41.668zm0 3.7031c20.988 0 37.965 16.977 37.965 37.965 0 10.516-4.2617 20.023-11.156 26.895-5.9375-11.238-15.914-18.242-26.809-18.242-10.891 0-20.871 7.0039-26.809 18.238-6.8906-6.8711-11.156-16.375-11.156-26.891 0-20.988 16.977-37.965 37.965-37.965zm0 14.566c-7.6484 0-13.891 6.2383-13.891 13.891 0 7.6484 6.2383 13.891 13.891 13.891 7.6484 0 13.891-6.2383 13.891-13.891 0-7.6484-6.2383-13.891-13.891-13.891zm0 3.7031c5.6484 0 10.184 4.5391 10.184 10.184 0 5.6484-4.5391 10.184-10.184 10.184-5.6484 0-10.184-4.5391-10.184-10.184 0-5.6484 4.5391-10.184 10.184-10.184zm0 32.051c9.5508 0 18.59 6.3164 23.961 17.098-6.5312 5.3203-14.867 8.5117-23.961 8.5117s-17.434-3.1914-23.965-8.5117c5.3711-10.781 14.414-17.098 23.965-17.098z"/>
</svg>