<svg xmlns="http://www.w3.org/2000/svg" version="1.1" viewBox="-5.0 -10.0 110.0 135.0">
 <path d="m26.035 88.699c4.9414 0 9.6797-1.9648 13.176-5.457 3.4922-3.4961 5.457-8.2344 5.4531-13.176 0-4.9453-1.9609-9.6836-5.457-13.176-3.4961-3.4961-8.2344-5.457-13.176-5.457s-9.6836 1.9648-13.176 5.4609c-3.4922 3.4922-5.457 8.2344-5.457 13.176 0 4.9414 1.9648 9.6797 5.4609 13.176 3.4922 3.4922 8.2344 5.4531 13.176 5.4531zm0.96875-20.156v0.003906c-0.61719-0.39453-1.4102-0.375-2.0078 0.042969-0.59766 0.42188-0.88281 1.1602-0.72266 1.875 0.16016 0.71094 0.73047 1.2617 1.4531 1.3867 0.71875 0.125 1.4453-0.19531 1.8359-0.8125 0.53125-0.84375 0.28516-1.957-0.55859-2.4922zm0.71094-2.3164h0.003906c0.38672 0.17188 0.74609 0.39844 1.0664 0.67578l0.87109-2.5664zm2.5156 3.8438c0.003906 1.6211-0.93359 3.1016-2.4023 3.793l-7.2852 7.0938h0.003906c-0.39062 0.39453-0.99609 0.47266-1.4727 0.1875-0.47656-0.28516-0.69141-0.85938-0.52734-1.3867l3.3008-9.6797c-0.003906-0.79297 0.22266-1.5742 0.64844-2.2422v-0.003907c0.42578-0.67188 1.0312-1.2109 1.75-1.5547l7.2852-7.0898c0.38672-0.40234 1-0.48438 1.4805-0.19922 0.48047 0.28906 0.69922 0.86719 0.52734 1.4023zm-5.8789 3.8477v-0.003907c-0.38672-0.16797-0.74609-0.39844-1.0664-0.67187l-0.875 2.5586zm20.156 6.2109h29.242l-20.242-19.16c-0.042968-0.039062-0.085937-0.082031-0.125-0.12109l-5.8281-5.5c-0.43359-0.32031-1.0391-0.23047-1.3594 0.19922l-2.4141 3.2383c2.0156 3.168 3.1445 6.8203 3.2734 10.574 0.125 3.7539-0.75391 7.4727-2.5469 10.77zm-2.1914-23.371c0.41016-0.55859 1.8633-2.5625 2.2266-2.9453h-0.003907c0.625-0.66016 1.4844-1.0391 2.3945-1.0547 0.90625-0.011718 1.7773 0.34375 2.418 0.98828l4.7891 4.5391 8.1484-10.141-7.3008-7.5c-2.9062 2.3477-5.2578-0.046875-6.4102 0.042969-0.89453 0.066406-2.1992 1.9844-4.0898 2.0078h0.003907c-0.66797-0.015624-1.3203-0.19922-1.8984-0.53906l-6.3945 9.5039c2.3438 1.2969 4.418 3.0273 6.1133 5.1016zm-8.2812-6.1406 11.566-17.227c0.5625-0.83984 1.4766-1.3828 2.4844-1.4766 1.0117-0.089843 2.0078 0.27734 2.7148 1.0039l13 13.355 4.9648-6.1836c0.70703-0.875 1.8008-1.3398 2.9219-1.2383 1.1172 0.097657 2.1133 0.75 2.6523 1.7383l20.234 36.953c0.57031 1.043 0.55078 2.3086-0.058594 3.332-0.60547 1.0234-1.707 1.6484-2.8945 1.6484h-48.637c-3.1289 4.2578-7.7422 7.1797-12.93 8.1875-5.1836 1.0117-10.559 0.03125-15.055-2.7422-4.4961-2.7695-7.7812-7.1328-9.2109-12.219-1.4258-5.0859-0.88672-10.52 1.5117-15.227 2.3984-4.707 6.4766-8.3398 11.43-10.172 4.9531-1.8359 10.418-1.7422 15.301 0.26563zm3.1016 10.055h-0.003907c-0.22266 0.23438-0.53125 0.36719-0.85547 0.37109-0.32422 0.003906-0.63672-0.125-0.86328-0.35547-0.23047-0.22656-0.35547-0.53906-0.35156-0.86328 0.007812-0.32422 0.14062-0.62891 0.375-0.85156-2.3086-1.9648-5.1797-3.1523-8.2031-3.3984 0 0.66406-0.53906 1.2031-1.1992 1.2031-0.66406 0-1.1992-0.53906-1.1992-1.2031-3.0234 0.24609-5.8945 1.4336-8.207 3.3984 0.23828 0.21875 0.375 0.52734 0.38281 0.85547 0.007812 0.32422-0.12109 0.63672-0.34766 0.87109-0.23047 0.23047-0.54297 0.35547-0.87109 0.35156-0.32422-0.003906-0.63281-0.14062-0.85547-0.37891-1.9648 2.3086-3.1523 5.1797-3.4023 8.1992 0.66406 0 1.1992 0.53906 1.1992 1.1992 0 0.66406-0.53516 1.1992-1.1992 1.1992 0.25 3.0234 1.4375 5.8906 3.4023 8.2031 0.21484-0.25391 0.53125-0.40625 0.86328-0.41797 0.33203-0.011719 0.65625 0.11719 0.89062 0.35156 0.23828 0.23828 0.36328 0.55859 0.35156 0.89453-0.011719 0.33203-0.16406 0.64453-0.41406 0.86328 2.3086 1.9648 5.1797 3.1562 8.207 3.3984 0-0.66016 0.53516-1.1992 1.1992-1.1992 0.66016 0 1.1992 0.53906 1.1992 1.1992 3.0234-0.24219 5.8945-1.4297 8.2031-3.3984-0.25-0.21875-0.39844-0.53125-0.41016-0.86328-0.011719-0.33203 0.11719-0.65625 0.35156-0.89062s0.55859-0.36328 0.89062-0.35156c0.33203 0.011718 0.64453 0.16016 0.86328 0.41406 1.9648-2.3125 3.1523-5.1797 3.3984-8.2031-0.66016 0-1.1992-0.53516-1.1992-1.1992 0-0.66016 0.53906-1.1992 1.1992-1.1992-0.24609-3.0234-1.4336-5.8906-3.3984-8.1992zm0.88281 21.379-0.003906-0.003906c-3.1797 3.1797-7.4844 4.9609-11.98 4.9648-4.4922 0-8.8008-1.7852-11.977-4.9609-3.1758-3.1797-4.9609-7.4883-4.9609-11.98 0-4.4922 1.7852-8.8008 4.9609-11.977 3.1758-3.1758 7.4844-4.9609 11.977-4.9609 4.4961 0 8.8008 1.7852 11.98 4.9648 3.1758 3.1758 4.9609 7.4805 4.9609 11.973 0 4.4922-1.7852 8.8008-4.9609 11.977zm18.203-51.715c0.47656-0.40625 1.1875-0.37891 1.6289 0.0625 0.44531 0.44531 0.47266 1.1562 0.0625 1.6289l-1.3633 1.3711c-0.47266 0.44922-1.2188 0.4375-1.6758-0.023438-0.46094-0.46094-0.46875-1.2031-0.019531-1.6758zm-2.4414-8.2812h0.003906c0.66016 0 1.1992 0.53516 1.1992 1.1992 0 0.66406-0.53906 1.1992-1.1992 1.1992h-1.9297c-0.66406 0-1.2031-0.53516-1.2031-1.1992 0-0.66406 0.53906-1.1992 1.2031-1.1992zm4.1328-7.5781v-0.003906c0.41016 0.47656 0.38281 1.1875-0.0625 1.6289-0.44141 0.44531-1.1523 0.47266-1.6289 0.0625l-1.3672-1.3633c-0.41016-0.47656-0.38281-1.1875 0.0625-1.6328 0.44141-0.44531 1.1562-0.47266 1.6328-0.058594zm8.2812-2.4414h0.003907c0.019531 0.32812-0.09375 0.65625-0.32031 0.89844-0.23047 0.24219-0.54688 0.37891-0.87891 0.37891s-0.64844-0.13672-0.875-0.37891c-0.22656-0.24219-0.34375-0.57031-0.32031-0.89844v-1.9336c-0.023438-0.33203 0.09375-0.65625 0.32031-0.89844s0.54297-0.37891 0.875-0.37891 0.64844 0.13672 0.87891 0.37891c0.22656 0.24219 0.33984 0.56641 0.32031 0.89844zm7.5781 4.1328 0.003906-0.003907c-0.21484 0.25781-0.53125 0.40625-0.86328 0.42188-0.33594 0.011718-0.66016-0.11719-0.89453-0.35156-0.23828-0.23828-0.36328-0.5625-0.35156-0.89453 0.011719-0.33594 0.16406-0.64844 0.41797-0.86719l1.3672-1.3672c0.21875-0.25 0.53125-0.39453 0.86328-0.40625 0.33203-0.011719 0.65234 0.11719 0.88672 0.35156s0.36328 0.55469 0.35156 0.88672c-0.011719 0.33203-0.16016 0.64453-0.40625 0.86328zm2.4414 8.2812h0.003906c-0.66406 0-1.1992-0.53906-1.1992-1.1992 0-0.66406 0.53516-1.1992 1.1992-1.1992h1.9336c0.66406 0 1.2031 0.53516 1.2031 1.1992 0 0.66016-0.53906 1.1992-1.2031 1.1992zm-4.1328 7.5781h0.003907c-0.25391-0.21484-0.40625-0.53125-0.41797-0.86328-0.011719-0.33594 0.11328-0.66016 0.35156-0.89453 0.23438-0.23828 0.55859-0.36328 0.89453-0.35156 0.33203 0.011719 0.64844 0.16406 0.86328 0.41797l1.3711 1.3633c0.23437 0.22266 0.36719 0.53125 0.375 0.85547 0.003906 0.32422-0.12109 0.63281-0.35156 0.86328-0.22656 0.23047-0.53906 0.35547-0.86328 0.35547-0.32422-0.003907-0.63281-0.14063-0.85547-0.375zm-8.2812 2.4414c-0.023437-0.33203 0.09375-0.65625 0.32031-0.89844 0.22656-0.24219 0.54297-0.37891 0.875-0.37891 0.33203 0 0.64844 0.13672 0.875 0.37891 0.23047 0.24219 0.34375 0.56641 0.32422 0.89844v1.9297c0.019532 0.33203-0.09375 0.65625-0.32422 0.89844-0.22656 0.24219-0.54297 0.37891-0.875 0.37891-0.33203 0-0.64844-0.13672-0.875-0.37891-0.22656-0.24219-0.34375-0.56641-0.32031-0.89844zm1.1992-19.77c3.457 0 6.5742 2.082 7.8984 5.2773 1.3242 3.1953 0.59375 6.875-1.8516 9.3203s-6.125 3.1758-9.3203 1.8516c-3.1953-1.3242-5.2773-4.4414-5.2773-7.8984 0-2.2695 0.90234-4.4414 2.5039-6.0469 1.6055-1.6016 3.7773-2.5039 6.0469-2.5039zm4.3516 4.1992c-1.7617-1.7578-4.4062-2.2852-6.707-1.332-2.2969 0.95312-3.7969 3.1953-3.7969 5.6836s1.5 4.7305 3.7969 5.6836c2.3008 0.95312 4.9453 0.42578 6.707-1.332 1.1523-1.1562 1.8008-2.7188 1.8008-4.3516s-0.64844-3.1953-1.8008-4.3516zm-56.309 16.379c-3.6562-4.3281-0.96484-11.809 4.9062-11.809 0.52344 0 1.043 0.070312 1.5469 0.20312 0.71484-2.1602 2.5742-3.7383 4.8203-4.0898 2.2461-0.35156 4.5 0.58594 5.8359 2.4258 4.4141-1.5703 8.8867 2.3008 8.6016 7.168 1.0352 0.52344 1.8008 1.4688 2.1016 2.5898 0.29688 1.125 0.10547 2.3242-0.53125 3.2969-0.6875 0.97266-1.8086 1.5469-3 1.5312h-21.453c-1.0938 0.007812-2.1328-0.47266-2.8281-1.3125zm0.73438-4.6602h-0.003906c-0.015626 1.1367 0.37109 2.2422 1.0938 3.1172 0.24219 0.30469 0.61328 0.47656 1 0.46094h21.457c0.42188 0.003907 0.81641-0.19531 1.0625-0.53516 0.24609-0.34375 0.3125-0.78125 0.17969-1.1797-0.19141-0.65234-0.69141-1.1641-1.3398-1.3672-0.30859-0.058593-0.58203-0.23828-0.76172-0.5-0.17578-0.26172-0.24219-0.58203-0.18359-0.89062 0.69922-3.7578-2.8164-6.9688-6-5.1484h-0.003906v-0.003907c-0.28516 0.16016-0.625 0.19922-0.9375 0.10156-0.3125-0.09375-0.57422-0.3125-0.72266-0.60547-1.7461-3.4883-6.5078-2.6172-7.1094 1.3828h-0.003906c-0.058594 0.38281-0.29688 0.71484-0.64453 0.89062-0.34766 0.17188-0.75781 0.16797-1.1016-0.019532-1.3906-0.74219-3.0938-0.57031-4.3047 0.4375-1.0938 0.98438-1.7031 2.3906-1.6797 3.8594zm63.301 19.934c-3.0508 1.6797-5-0.88281-6.1875-1.1836-1-0.24609-2.5352 1.1641-5.0391-1.832l-9.9648 12.398 21.328 20.195h14.406c0.34766 0.003906 0.66797-0.17578 0.84766-0.47656 0.17578-0.29688 0.17969-0.66797 0.011719-0.96875zm-9.6953-4.9219c0.32422 0.45312 0.70703 0.85938 1.1367 1.2109 0.78125 0.56641 1.5859-0.125 2.9375 0.21094 1.3242 0.32812 2.5703 1.6289 3.5156 1.6797l0.003906-0.003907c0.33594-0.003906 0.66406-0.097656 0.94922-0.27344l-3.6875-6.7266v0.003907c-0.15625-0.28516-0.44531-0.47266-0.76953-0.5-0.32422-0.027344-0.64062 0.10547-0.84375 0.35938zm-14.074-6.707c-0.5-0.51562-4.1758-4.3359-4.3789-4.4727-0.21484-0.14453-0.47656-0.19531-0.73047-0.14453-0.25391 0.050781-0.47656 0.19922-0.61719 0.41797l-3.6523 5.4336c0.6875 0.31641 0.92969 0.10156 1.8828-0.61719 0.71875-0.66016 1.6211-1.0898 2.5859-1.2383 1.6992-0.13672 3.3008 1.3711 4.4844 0.86719h0.003907c0.14844-0.066407 0.29297-0.14844 0.42578-0.24609z"/>
</svg>