<svg xmlns="http://www.w3.org/2000/svg" version="1.1" viewBox="-5.0 -10.0 110.0 135.0">
 <path d="m27.996 37.809c-0.35547-6.2812 0.14062-12.461 1.4805-18.621-2.2812-0.12891-4.5625-0.28125-6.8477-0.45312-2.7422 0.007813-5.2305 1.1055-7.0352 2.8672-3.8906 3.8008-3.8906 9.9102 0 13.711 1.8047 1.7617 4.293 2.8594 7.0352 2.8672 1.7891-0.13672 3.5781-0.25781 5.3672-0.36719zm8.1328-0.40234c-0.30469-6.0117 0.17188-11.957 1.418-17.848-1.7734-0.0625-3.5469-0.13672-5.3203-0.22266-1.3438 6.0195-1.8555 12.16-1.5078 18.32 1.8047-0.097656 3.6094-0.17969 5.4141-0.25zm34.391-18.219c1.3398 6.1602 1.8359 12.344 1.4805 18.621 1.7891 0.10938 3.5781 0.23047 5.3672 0.36719 2.7422-0.007812 5.2305-1.1055 7.0352-2.8672 3.8906-3.8008 3.8906-9.9102 0-13.711-1.8047-1.7617-4.293-2.8594-7.0352-2.8672-2.2812 0.17188-4.5664 0.32422-6.8477 0.45312zm-9.375 18.125c0.30469-5.9453-0.1875-11.844-1.4648-17.672-6.4609 0.17578-12.906 0.17578-19.367 0-1.2734 5.8281-1.7656 11.723-1.4648 17.672 7.4375-0.23047 14.855-0.23047 22.293 0zm1.3047-17.754c1.2461 5.8945 1.7227 11.836 1.418 17.852 1.8047 0.070313 3.6094 0.15234 5.4141 0.25 0.34766-6.1602-0.16406-12.301-1.5078-18.32-1.7734 0.085937-3.5508 0.16016-5.3203 0.22266zm-38.141 21.227c-0.33594 0.92188-0.46484 1.7539-0.46484 2.7656v41.82c0 3.8438 3.2344 6.8945 7.0898 6.8945h38.133c3.8516 0 7.0898-3.0508 7.0898-6.8945v-41.82c0-1.0117-0.13281-1.8477-0.46484-2.7656-17.105-1.2266-34.273-1.2266-51.379 0zm4.5117 44.824v-38.887c0-0.75391 0.60938-1.3633 1.3633-1.3633h39.625c0.75391 0 1.3633 0.60938 1.3633 1.3633v38.887c0 1.1016-1.0508 1.8555-2.1094 1.8555h-38.129c-1.0586 0-2.1094-0.75391-2.1094-1.8555zm2.7266-37.523h36.898v36.652h-36.895v-36.652zm11.273 15.293c0.23047 0.39062-0.027343 0.92578-0.58984 0.92578h-3.7969c-0.42969 0-0.68359-0.32031-0.68359-0.62109h0.003906c0-0.097656 0.027344-0.19922 0.089844-0.30078l1.8984-3.2148c0.26172-0.44141 0.91797-0.44141 1.1758 0l1.8984 3.2148zm0.44531-4.5977 1.8984 3.2148c1.3398 2.2656-0.35156 5.0352-2.9336 5.0352h-3.7969c-1.875 0-3.3984-1.5078-3.3984-3.3477h-0.003906c0-0.57812 0.15625-1.1523 0.47266-1.6836l1.8984-3.2148c0.37109-0.625 0.91406-1.1016 1.5703-1.3828v-1.9727h-2.8867c-0.75391 0-1.3633-0.60938-1.3633-1.3633s0.60938-1.3633 1.3633-1.3633h27.82c0.75391 0 1.3633 0.60938 1.3633 1.3633s-0.60938 1.3633-1.3633 1.3633h-22.207v1.9727c0.65234 0.28125 1.1992 0.75781 1.5703 1.3828zm-13.324-48.734c-0.53125 2.0273-0.63281 4.207-0.54688 6.4062 0.78516 0.046875 1.5703 0.085937 2.3555 0.12891-0.51172-2.2812-1.0938-4.4688-1.8047-6.5352zm14.562 6.957c-0.67969-3.1172-1.5781-6.4414-2.7773-9.2656h-9.7305c1.0703 2.7656 1.8906 5.8359 2.5625 8.9766 3.3125 0.14062 6.6289 0.23828 9.9492 0.28906zm23.5-9.2656h-9.7305c-1.1992 2.8242-2.1016 6.1484-2.7773 9.2656 3.3164-0.050781 6.6328-0.14844 9.9492-0.28906 0.67188-3.1445 1.4922-6.2148 2.5625-8.9766zm2.6016 8.7188c0.085937-2.1992-0.015625-4.3789-0.54688-6.4062-0.71094 2.0664-1.2969 4.2539-1.8047 6.5352 0.78516-0.039063 1.5703-0.082032 2.3555-0.12891zm-17.273-2.1797-0.98438-1.6641c-0.51172-0.86719-1.3359-1.3164-2.3477-1.3164s-1.8359 0.44531-2.3477 1.3164l-0.98438 1.6641c0.21875 0.88281 0.42578 1.8008 0.62891 2.7578h5.4062c0.20312-0.95703 0.41016-1.875 0.62891-2.7578zm4.0859 66.051c-0.75391 0-1.3633-0.60938-1.3633-1.3633s0.60937-1.3633 1.3633-1.3633h4.9492c0.75391 0 1.3633 0.60938 1.3633 1.3633s-0.60938 1.3633-1.3633 1.3633zm-36.301-19.914c-2.0586 0.14844-3.8633 1.5859-4.4102 3.6328l-3.4062 12.719c-0.69922 2.6133 0.86719 5.3242 3.4766 6.0234l4.3438 1.1641v-23.539zm57.766-2.7266c3.2852 0.14844 6.1797 2.4102 7.0508 5.6562l3.4062 12.719c1.0859 4.0586-1.3438 8.2695-5.4023 9.3594l-5.1641 1.3828c-0.72266 4.6875-4.8789 8.1914-9.7031 8.1914l-38.137-0.003906c-4.8281 0-8.9844-3.5039-9.707-8.1914l-5.1562-1.3828c-4.0625-1.0898-6.4922-5.3008-5.4023-9.3594l3.4062-12.719c0.86719-3.2422 3.7578-5.5039 7.043-5.6523v-14.137c0-0.93359 0.10547-1.8164 0.32812-2.7031-6.3906-0.60156-11.496-5.9141-11.496-12.391 0-6.9023 5.7812-12.449 12.711-12.449v0.003907c0.035156 0 0.066406 0 0.10156 0.003906 1.3008 0.097656 2.6016 0.19141 3.9023 0.27344-0.054687-1.6758 0.003907-3.2773 0.22266-4.8086 0.28906-2.0234 0.85938-3.9141 1.8242-5.6875 0.21875-0.46484 0.6875-0.78125 1.2344-0.78125h12.668v0.003906c0.51562 0 1.0078 0.29297 1.2344 0.78906 0.65234 1.4102 1.2617 3.0352 1.832 4.8789 2.1484-2.8125 6.4961-2.8125 8.6445 0 0.57031-1.8398 1.1797-3.4688 1.832-4.8789 0.23047-0.49609 0.72266-0.78906 1.2344-0.78906v-0.003906h12.668c0.54688 0 1.0156 0.32031 1.2344 0.78125 0.96484 1.7734 1.5352 3.6641 1.8242 5.6875 0.21875 1.5312 0.27344 3.1328 0.22266 4.8086 1.2773-0.082031 2.5586-0.17187 3.8359-0.26953 0.054688-0.007812 0.11328-0.011719 0.16797-0.011719 6.9258 0 12.711 5.5469 12.711 12.449 0 6.4766-5.1055 11.793-11.496 12.391 0.22656 0.88672 0.32812 1.7734 0.32812 2.7031v14.137zm0 26.266 4.3516-1.1641c2.6094-0.69922 4.1758-3.4102 3.4766-6.0234l-3.4062-12.719c-0.55078-2.0508-2.3555-3.4844-4.418-3.6328v23.539z" fill-rule="evenodd"/>
</svg>