<svg xmlns="http://www.w3.org/2000/svg" version="1.1" viewBox="-5.0 -10.0 110.0 135.0">
 <path d="m52.598 55.555c0-0.76953-0.62109-1.3906-1.3906-1.3906h-13.535c4.5-3.7188 7.8125-8.6875 9.5508-14.215 1.2617 4.0391 3.3555 7.8086 6.2266 11.027 0.27344 0.30859 0.65625 0.46484 1.0352 0.46484 0.32812 0 0.66016-0.11719 0.92578-0.35156 0.57422-0.51172 0.62109-1.3906 0.10938-1.9609-4.207-4.7148-6.6016-10.707-6.8594-16.98 3.8945 5.7266 10.547 11.164 11.582 11.992 0.25391 0.20312 0.5625 0.30469 0.86719 0.30469 0.40625 0 0.80859-0.17969 1.0859-0.51953 0.48047-0.59766 0.38281-1.4727-0.21484-1.9531-3.7188-2.9766-13.367-11.828-13.367-16.969l-0.003906-15.613 22.684 27.219c0.48828 0.58594 1.3633 0.66406 1.957 0.17578 0.58984-0.49219 0.66797-1.3672 0.17578-1.957l-25.137-30.164c-0.52734-0.63281-1.6055-0.63281-2.1328 0l-39.211 47.055v-3.1094c0-0.76953-0.62109-1.3906-1.3906-1.3906-0.76563 0-1.3906 0.62109-1.3906 1.3906v6.9453c0 0.58594 0.36719 1.1055 0.91797 1.3047 0.15625 0.054687 0.3125 0.082031 0.47266 0.082031 0.40234 0 0.79687-0.17578 1.0664-0.5l8.6562-10.387v6.7188c0 2.2969 1.8672 4.168 4.168 4.168h31.766c0.76562 0 1.3906-0.62109 1.3906-1.3906zm-17.875-2.5898v-9.2461c1.9219-1.582 7.6172-6.4727 11.09-11.59-0.33984 8.25-4.4727 15.965-11.09 20.84zm-16.668-0.1875v-10.051l27.777-33.336v15.609c0 5.1445-9.6484 13.996-13.367 16.969-0.32812 0.26562-0.51953 0.66406-0.51953 1.0859v11.109h-12.5c-0.76562 0-1.3906-0.62109-1.3906-1.3906z"/>
 <path d="m71.426 79.051c3.1992 0 6.2422-1.2422 8.3906-2.9648 5.0781-4.0664 6.4062-11.789 3.1562-18.367-0.24609-0.49609-0.76172-0.78906-1.3242-0.76953-0.55469 0.03125-1.0391 0.39062-1.2266 0.91406-2.0117 5.5742-6.3789 9.4883-11.391 10.207-3.1211 0.45313-5.8203-0.4375-7.5352-1.2656-0.46094-0.22266-1.0117-0.17188-1.4258 0.13281-0.41406 0.30469-0.625 0.8125-0.55078 1.3242 0.16016 1.0703 1.2109 6.5508 6.2578 9.3438 1.8359 1.0156 3.7695 1.4453 5.6484 1.4453zm-8.457-8.7148c1.8164 0.52734 4.0195 0.83594 6.4531 0.48437 5-0.71875 9.4414-4.0078 12.16-8.8398 1.1055 4.582-0.17578 9.2734-3.5039 11.938-2.6055 2.082-7.1445 3.3672-10.961 1.2578-2.2656-1.2539-3.4922-3.2344-4.1484-4.8398z"/>
 <path d="m91.668 84.723h-8.332c-0.14453 0-0.27734 0.027344-0.41797 0.042969 1.1406-0.63672 2.0586-1.2617 2.6523-1.7188 4.793-3.6641 7.7734-9.1055 8.8633-16.168 1.8008-11.676-4.8047-24.43-17.234-33.289-0.55078-0.39062-1.3086-0.32812-1.7891 0.14844-0.48047 0.48047-0.54297 1.2344-0.14844 1.7891 1.0781 1.5117 3.4609 5.5117 2.3438 9.9688-1.0742 4.2773-5.0742 7.4961-8.3359 8.6719-1.7227 0.62109-2.9648 0.57422-3.3867 0.26562-0.14844-0.10938-1.375-1.2539 0.72656-8.1992 0.16797-0.55078-0.023437-1.1484-0.48047-1.5-0.45703-0.35156-1.082-0.38672-1.5742-0.085937-10.754 6.582-15.773 19.254-11.676 29.48 1.7891 4.4609 5.1758 8.1992 9.3125 10.594h-6.6367c-2.2969 0-4.168 1.8672-4.168 4.168v2.7773c0 2.2969 1.8672 4.168 4.168 4.168h8.332c1.0703 0 2.0391-0.41797 2.7773-1.082 0.73828 0.66797 1.707 1.082 2.7773 1.082h8.332c1.0703 0 2.0391-0.41797 2.7773-1.082 0.73828 0.66797 1.707 1.082 2.7773 1.082h8.332c2.2969 0 4.168-1.8672 4.168-4.168v-2.7773c0-2.2969-1.8672-4.168-4.168-4.168zm-36.211-11.629c-3.1992-7.9844 0.027344-17.73 7.5391-23.93-0.77344 3.9141-0.35938 6.3359 1.2461 7.5117 1.3359 0.97656 3.457 1.0117 5.9727 0.10547 4.0625-1.4688 8.7539-5.3164 10.082-10.613 0.60156-2.3867 0.41406-4.6445-0.09375-6.5859 8.5547 7.8398 12.887 17.758 11.48 26.871-0.97656 6.332-3.6016 11.172-7.8047 14.387-1.4727 1.125-5.0273 3.4375-9.7578 3.8789h-3.1992c-6.7227-0.64062-12.934-5.3086-15.465-11.629zm8.4336 19.961h-8.332c-0.76562 0-1.3906-0.62109-1.3906-1.3906v-2.7773c0-0.76562 0.625-1.3906 1.3906-1.3906h8.332c0.76562 0 1.3906 0.62109 1.3906 1.3906v2.7773c0 0.76563-0.625 1.3906-1.3906 1.3906zm13.887 0h-8.332c-0.76562 0-1.3906-0.62109-1.3906-1.3906v-2.7773c0-0.76562 0.625-1.3906 1.3906-1.3906h1.3789c0.58203 0.050781 1.1523 0.078125 1.707 0.078125 0.46094 0 0.89453-0.046875 1.3359-0.078125h3.9102c0.76562 0 1.3906 0.62109 1.3906 1.3906v2.7773c0 0.76563-0.625 1.3906-1.3906 1.3906zm15.277-1.3867c0 0.76562-0.625 1.3906-1.3906 1.3906h-8.332c-0.76562 0-1.3906-0.62109-1.3906-1.3906v-2.7773c0-0.76562 0.625-1.3906 1.3906-1.3906h8.332c0.76563 0 1.3906 0.62109 1.3906 1.3906z"/>
</svg>