<svg xmlns="http://www.w3.org/2000/svg" xmlns:xlink="http://www.w3.org/1999/xlink" version="1.1" x="0px" y="0px" viewBox="0 0 100 125" style="enable-background:new 0 0 100 100;" xml:space="preserve"><g><path d="M50,44.1c-6.5,0-11.9-4.2-11.9-9.3c0-5.1,5.3-9.3,11.9-9.3s11.9,4.2,11.9,9.3h11.9c0-9.9-7.6-18.1-17.8-20.5V2.5H44.1v11.8   c-10.2,2.4-17.8,10.6-17.8,20.5c0,11.7,10.7,21.2,23.8,21.2c6.5,0,11.9,4.2,11.9,9.3c0,5.1-5.3,9.3-11.9,9.3s-11.9-4.2-11.9-9.3   H26.3c0,9.9,7.6,18.1,17.8,20.5v11.8h11.9V85.7c10.2-2.4,17.8-10.6,17.8-20.5C73.8,53.6,63.1,44.1,50,44.1z"/></g></svg>