<svg xmlns="http://www.w3.org/2000/svg" version="1.1" viewBox="-5.0 -10.0 110.0 135.0">
 <path d="m60.777 69.227v27.113h-21.57v-27.113c0-1.2305 1-2.1992 2.1992-2.1992h17.172c1.2266 0 2.1992 0.96875 2.1992 2.1992zm25.57-13.656-36.34-28.66-36.344 28.66c-0.39844 0.3125-0.85547 0.60156-1.3125 0.82813v34.715c0 2.8867 2.3125 5.2305 5.1992 5.2305h18.801l-0.003906-27.117c0-2.8008 2.2852-5.0586 5.0586-5.0586h17.172c2.8008 0 5.0586 2.2578 5.0586 5.0586v27.113h18.828c2.8555 0 5.1992-2.3438 5.1992-5.2305v-34.711c-0.45703-0.23047-0.91406-0.51563-1.3164-0.82813zm11.91-15.121-45.43-35.809c-1.6602-1.3086-4-1.3086-5.6602 0l-45.426 35.809c-1.9805 1.5625-2.3242 4.4375-0.76172 6.418l4.4844 5.6914c1.5625 1.9805 4.4375 2.3242 6.418 0.76172l38.113-30.043 38.113 30.043c1.9805 1.5625 4.8555 1.2227 6.418-0.76172l4.4844-5.6914c1.5703-1.9844 1.2305-4.8555-0.75391-6.418z"/>
</svg>