<svg xmlns="http://www.w3.org/2000/svg" version="1.1" viewBox="-5.0 -10.0 110.0 135.0">
 <path d="m81.25 83.75c-0.9375 0-1.5625 0.625-1.5625 1.5625v5.3125c0 0.9375-0.625 1.5625-1.5625 1.5625h-56.25c-0.9375 0-1.5625-0.625-1.5625-1.5625v-60.938c0-0.9375-0.625-1.5625-1.5625-1.5625s-1.5625 0.625-1.5625 1.5625v60.938c0 2.6562 2.0312 4.6875 4.6875 4.6875h56.25c2.6562 0 4.6875-2.0312 4.6875-4.6875v-5.3125c0-0.78125-0.625-1.5625-1.5625-1.5625z"/>
 <path d="m78.125 4.6875h-56.25c-2.6562 0-4.6875 2.0312-4.6875 4.6875v6.25c0 0.9375 0.625 1.5625 1.5625 1.5625s1.5625-0.625 1.5625-1.5625v-6.25c0-0.9375 0.625-1.5625 1.5625-1.5625h56.25c0.9375 0 1.5625 0.625 1.5625 1.5625v60.938c0 0.9375 0.625 1.5625 1.5625 1.5625s1.5625-0.625 1.5625-1.5625v-60.938c0-2.6562-2.0312-4.6875-4.6875-4.6875z"/>
 <path d="m50 11.875c-7.1875 0-13.125 5.4688-13.125 12.031 0 6.0938 10.625 21.094 11.875 22.812 0.3125 0.46875 0.78125 0.625 1.25 0.625s0.9375-0.3125 1.25-0.625c1.25-1.7188 11.875-16.719 11.875-22.812 0-6.5625-5.9375-12.031-13.125-12.031zm0 31.25c-4.375-6.4062-10-15.625-10-19.219 0-5 4.5312-8.9062 10-8.9062s10 4.0625 10 8.9062c0 3.5938-5.625 12.812-10 19.219z"/>
 <path d="m50 17.5c-3.75 0-6.875 2.9688-6.875 6.4062 0 3.5938 3.125 6.4062 6.875 6.4062s6.875-2.9688 6.875-6.4062-3.125-6.4062-6.875-6.4062zm0 9.8438c-2.0312 0-3.75-1.5625-3.75-3.2812s1.7188-3.2812 3.75-3.2812 3.75 1.5625 3.75 3.2812-1.7188 3.2812-3.75 3.2812z"/>
 <path d="m74.375 56.25c0-0.9375-0.625-1.5625-1.5625-1.5625h-31.562c-0.9375 0-1.5625 0.625-1.5625 1.5625v5.3125c0 0.9375 0.625 1.5625 1.5625 1.5625h31.562c0.9375 0 1.5625-0.625 1.5625-1.5625zm-3.125 3.75h-28.438v-2.1875h28.438z"/>
 <path d="m27.188 63.125h7.1875c0.9375 0 1.5625-0.625 1.5625-1.5625v-5.3125c0-0.9375-0.625-1.5625-1.5625-1.5625h-7.1875c-0.9375 0-1.5625 0.625-1.5625 1.5625v5.3125c0 0.78125 0.625 1.5625 1.5625 1.5625zm1.5625-5.3125h4.0625v2.1875h-4.0625z"/>
 <path d="m74.375 68.75c0-0.9375-0.625-1.5625-1.5625-1.5625h-31.562c-0.9375 0-1.5625 0.625-1.5625 1.5625v5.3125c0 0.9375 0.625 1.5625 1.5625 1.5625h31.562c0.9375 0 1.5625-0.625 1.5625-1.5625zm-3.125 3.75h-28.438v-2.1875h28.438z"/>
 <path d="m25.625 74.062c0 0.9375 0.625 1.5625 1.5625 1.5625h7.1875c0.9375 0 1.5625-0.625 1.5625-1.5625v-5.3125c0-0.9375-0.625-1.5625-1.5625-1.5625h-7.1875c-0.9375 0-1.5625 0.625-1.5625 1.5625zm3.125-3.75h4.0625v2.1875h-4.0625z"/>
 <path d="m72.812 79.688h-31.562c-0.9375 0-1.5625 0.625-1.5625 1.5625v5.3125c0 0.9375 0.625 1.5625 1.5625 1.5625h31.562c0.9375 0 1.5625-0.625 1.5625-1.5625v-5.3125c0-0.9375-0.625-1.5625-1.5625-1.5625zm-1.5625 5.3125h-28.438v-2.1875h28.438z"/>
 <path d="m25.625 86.562c0 0.9375 0.625 1.5625 1.5625 1.5625h7.1875c0.9375 0 1.5625-0.625 1.5625-1.5625v-5.3125c0-0.9375-0.625-1.5625-1.5625-1.5625h-7.1875c-0.9375 0-1.5625 0.625-1.5625 1.5625zm3.125-3.75h4.0625v2.1875h-4.0625z"/>
</svg>