<svg xmlns="http://www.w3.org/2000/svg" version="1.1" viewBox="-5.0 -10.0 110.0 135.0">
 <path d="m7.6562 83.859c0.875 0.58203 1.9844 0.67969 2.9492 0.26172l20.645-8.8477 20.645 8.8477c0.39844 0.17188 0.81641 0.25391 1.2305 0.25391 1.2109 0 2.3672-0.71094 2.8711-1.8945 0.67969-1.5859-0.054688-3.4258-1.6406-4.1016l-19.98-8.5625v-55.703l15.625 6.6953v19.816c0 1.7266 1.3984 3.125 3.125 3.125s3.125-1.3984 3.125-3.125v-19.816l15.625-6.6953v17.137c0 1.7266 1.3984 3.125 3.125 3.125s3.125-1.3984 3.125-3.125v-21.875c0-1.0508-0.52734-2.0312-1.4062-2.6094-0.875-0.57812-1.9844-0.67578-2.9492-0.26172l-20.645 8.8477-20.645-8.8477c-0.78906-0.33594-1.6758-0.33594-2.4609 0l-21.875 9.375c-1.1523 0.48828-1.8945 1.6211-1.8945 2.8711v62.5c0 1.0508 0.52734 2.0312 1.4062 2.6094zm4.8438-63.051 15.625-6.6953v55.699l-15.625 6.6953z"/>
 <path d="m71.875 37.5c-12.062 0-21.875 9.8125-21.875 21.875 0 13.41 17.652 31.445 19.664 33.461 0.60938 0.60937 1.4102 0.91406 2.2109 0.91406s1.6016-0.30469 2.2109-0.91406c2.0117-2.0156 19.664-20.051 19.664-33.461 0-12.062-9.8125-21.875-21.875-21.875zm0 48.598c-5.7891-6.3125-15.625-18.703-15.625-26.723 0-8.6172 7.0078-15.625 15.625-15.625s15.625 7.0078 15.625 15.625c0 8.0195-9.8359 20.414-15.625 26.723z"/>
 <path d="m71.875 50c-5.168 0-9.375 4.207-9.375 9.375s4.207 9.375 9.375 9.375 9.375-4.207 9.375-9.375-4.207-9.375-9.375-9.375zm0 12.5c-1.7227 0-3.125-1.4023-3.125-3.125s1.4023-3.125 3.125-3.125 3.125 1.4023 3.125 3.125-1.4023 3.125-3.125 3.125z"/>
</svg>