<svg xmlns="http://www.w3.org/2000/svg">
  <defs>
        <symbol id="account" viewBox="-5.0 -10.0 110.0 135.0">
            <path d="m50 8.332c-22.988 0-41.668 18.676-41.668 41.668 0 22.988 18.676 41.668 41.668 41.668 22.988 0 41.668-18.676 41.668-41.668 0-22.988-18.676-41.668-41.668-41.668zm0 3.7031c20.988 0 37.965 16.977 37.965 37.965 0 10.516-4.2617 20.023-11.156 26.895-5.9375-11.238-15.914-18.242-26.809-18.242-10.891 0-20.871 7.0039-26.809 18.238-6.8906-6.8711-11.156-16.375-11.156-26.891 0-20.988 16.977-37.965 37.965-37.965zm0 14.566c-7.6484 0-13.891 6.2383-13.891 13.891 0 7.6484 6.2383 13.891 13.891 13.891 7.6484 0 13.891-6.2383 13.891-13.891 0-7.6484-6.2383-13.891-13.891-13.891zm0 3.7031c5.6484 0 10.184 4.5391 10.184 10.184 0 5.6484-4.5391 10.184-10.184 10.184-5.6484 0-10.184-4.5391-10.184-10.184 0-5.6484 4.5391-10.184 10.184-10.184zm0 32.051c9.5508 0 18.59 6.3164 23.961 17.098-6.5312 5.3203-14.867 8.5117-23.961 8.5117s-17.434-3.1914-23.965-8.5117c5.3711-10.781 14.414-17.098 23.965-17.098z"/>
        </symbol>
        <symbol id="activity" viewBox="-5.0 -10.0 110.0 135.0">
            <path d="m26.035 88.699c4.9414 0 9.6797-1.9648 13.176-5.457 3.4922-3.4961 5.457-8.2344 5.4531-13.176 0-4.9453-1.9609-9.6836-5.457-13.176-3.4961-3.4961-8.2344-5.457-13.176-5.457s-9.6836 1.9648-13.176 5.4609c-3.4922 3.4922-5.457 8.2344-5.457 13.176 0 4.9414 1.9648 9.6797 5.4609 13.176 3.4922 3.4922 8.2344 5.4531 13.176 5.4531zm0.96875-20.156v0.003906c-0.61719-0.39453-1.4102-0.375-2.0078 0.042969-0.59766 0.42188-0.88281 1.1602-0.72266 1.875 0.16016 0.71094 0.73047 1.2617 1.4531 1.3867 0.71875 0.125 1.4453-0.19531 1.8359-0.8125 0.53125-0.84375 0.28516-1.957-0.55859-2.4922zm0.71094-2.3164h0.003906c0.38672 0.17188 0.74609 0.39844 1.0664 0.67578l0.87109-2.5664zm2.5156 3.8438c0.003906 1.6211-0.93359 3.1016-2.4023 3.793l-7.2852 7.0938h0.003906c-0.39062 0.39453-0.99609 0.47266-1.4727 0.1875-0.47656-0.28516-0.69141-0.85938-0.52734-1.3867l3.3008-9.6797c-0.003906-0.79297 0.22266-1.5742 0.64844-2.2422v-0.003907c0.42578-0.67188 1.0312-1.2109 1.75-1.5547l7.2852-7.0898c0.38672-0.40234 1-0.48438 1.4805-0.19922 0.48047 0.28906 0.69922 0.86719 0.52734 1.4023zm-5.8789 3.8477v-0.003907c-0.38672-0.16797-0.74609-0.39844-1.0664-0.67187l-0.875 2.5586zm20.156 6.2109h29.242l-20.242-19.16c-0.042968-0.039062-0.085937-0.082031-0.125-0.12109l-5.8281-5.5c-0.43359-0.32031-1.0391-0.23047-1.3594 0.19922l-2.4141 3.2383c2.0156 3.168 3.1445 6.8203 3.2734 10.574 0.125 3.7539-0.75391 7.4727-2.5469 10.77zm-2.1914-23.371c0.41016-0.55859 1.8633-2.5625 2.2266-2.9453h-0.003907c0.625-0.66016 1.4844-1.0391 2.3945-1.0547 0.90625-0.011718 1.7773 0.34375 2.418 0.98828l4.7891 4.5391 8.1484-10.141-7.3008-7.5c-2.9062 2.3477-5.2578-0.046875-6.4102 0.042969-0.89453 0.066406-2.1992 1.9844-4.0898 2.0078h0.003907c-0.66797-0.015624-1.3203-0.19922-1.8984-0.53906l-6.3945 9.5039c2.3438 1.2969 4.418 3.0273 6.1133 5.1016zm-8.2812-6.1406 11.566-17.227c0.5625-0.83984 1.4766-1.3828 2.4844-1.4766 1.0117-0.089843 2.0078 0.27734 2.7148 1.0039l13 13.355 4.9648-6.1836c0.70703-0.875 1.8008-1.3398 2.9219-1.2383 1.1172 0.097657 2.1133 0.75 2.6523 1.7383l20.234 36.953c0.57031 1.043 0.55078 2.3086-0.058594 3.332-0.60547 1.0234-1.707 1.6484-2.8945 1.6484h-48.637c-3.1289 4.2578-7.7422 7.1797-12.93 8.1875-5.1836 1.0117-10.559 0.03125-15.055-2.7422-4.4961-2.7695-7.7812-7.1328-9.2109-12.219-1.4258-5.0859-0.88672-10.52 1.5117-15.227 2.3984-4.707 6.4766-8.3398 11.43-10.172 4.9531-1.8359 10.418-1.7422 15.301 0.26563zm3.1016 10.055h-0.003907c-0.22266 0.23438-0.53125 0.36719-0.85547 0.37109-0.32422 0.003906-0.63672-0.125-0.86328-0.35547-0.23047-0.22656-0.35547-0.53906-0.35156-0.86328 0.007812-0.32422 0.14062-0.62891 0.375-0.85156-2.3086-1.9648-5.1797-3.1523-8.2031-3.3984 0 0.66406-0.53906 1.2031-1.1992 1.2031-0.66406 0-1.1992-0.53906-1.1992-1.2031-3.0234 0.24609-5.8945 1.4336-8.207 3.3984 0.23828 0.21875 0.375 0.52734 0.38281 0.85547 0.007812 0.32422-0.12109 0.63672-0.34766 0.87109-0.23047 0.23047-0.54297 0.35547-0.87109 0.35156-0.32422-0.003906-0.63281-0.14062-0.85547-0.37891-1.9648 2.3086-3.1523 5.1797-3.4023 8.1992 0.66406 0 1.1992 0.53906 1.1992 1.1992 0 0.66406-0.53516 1.1992-1.1992 1.1992 0.25 3.0234 1.4375 5.8906 3.4023 8.2031 0.21484-0.25391 0.53125-0.40625 0.86328-0.41797 0.33203-0.011719 0.65625 0.11719 0.89062 0.35156 0.23828 0.23828 0.36328 0.55859 0.35156 0.89453-0.011719 0.33203-0.16406 0.64453-0.41406 0.86328 2.3086 1.9648 5.1797 3.1562 8.207 3.3984 0-0.66016 0.53516-1.1992 1.1992-1.1992 0.66016 0 1.1992 0.53906 1.1992 1.1992 3.0234-0.24219 5.8945-1.4297 8.2031-3.3984-0.25-0.21875-0.39844-0.53125-0.41016-0.86328-0.011719-0.33203 0.11719-0.65625 0.35156-0.89062s0.55859-0.36328 0.89062-0.35156c0.33203 0.011718 0.64453 0.16016 0.86328 0.41406 1.9648-2.3125 3.1523-5.1797 3.3984-8.2031-0.66016 0-1.1992-0.53516-1.1992-1.1992 0-0.66016 0.53906-1.1992 1.1992-1.1992-0.24609-3.0234-1.4336-5.8906-3.3984-8.1992zm0.88281 21.379-0.003906-0.003906c-3.1797 3.1797-7.4844 4.9609-11.98 4.9648-4.4922 0-8.8008-1.7852-11.977-4.9609-3.1758-3.1797-4.9609-7.4883-4.9609-11.98 0-4.4922 1.7852-8.8008 4.9609-11.977 3.1758-3.1758 7.4844-4.9609 11.977-4.9609 4.4961 0 8.8008 1.7852 11.98 4.9648 3.1758 3.1758 4.9609 7.4805 4.9609 11.973 0 4.4922-1.7852 8.8008-4.9609 11.977zm18.203-51.715c0.47656-0.40625 1.1875-0.37891 1.6289 0.0625 0.44531 0.44531 0.47266 1.1562 0.0625 1.6289l-1.3633 1.3711c-0.47266 0.44922-1.2188 0.4375-1.6758-0.023438-0.46094-0.46094-0.46875-1.2031-0.019531-1.6758zm-2.4414-8.2812h0.003906c0.66016 0 1.1992 0.53516 1.1992 1.1992 0 0.66406-0.53906 1.1992-1.1992 1.1992h-1.9297c-0.66406 0-1.2031-0.53516-1.2031-1.1992 0-0.66406 0.53906-1.1992 1.2031-1.1992zm4.1328-7.5781v-0.003906c0.41016 0.47656 0.38281 1.1875-0.0625 1.6289-0.44141 0.44531-1.1523 0.47266-1.6289 0.0625l-1.3672-1.3633c-0.41016-0.47656-0.38281-1.1875 0.0625-1.6328 0.44141-0.44531 1.1562-0.47266 1.6328-0.058594zm8.2812-2.4414h0.003907c0.019531 0.32812-0.09375 0.65625-0.32031 0.89844-0.23047 0.24219-0.54688 0.37891-0.87891 0.37891s-0.64844-0.13672-0.875-0.37891c-0.22656-0.24219-0.34375-0.57031-0.32031-0.89844v-1.9336c-0.023438-0.33203 0.09375-0.65625 0.32031-0.89844s0.54297-0.37891 0.875-0.37891 0.64844 0.13672 0.87891 0.37891c0.22656 0.24219 0.33984 0.56641 0.32031 0.89844zm7.5781 4.1328 0.003906-0.003907c-0.21484 0.25781-0.53125 0.40625-0.86328 0.42188-0.33594 0.011718-0.66016-0.11719-0.89453-0.35156-0.23828-0.23828-0.36328-0.5625-0.35156-0.89453 0.011719-0.33594 0.16406-0.64844 0.41797-0.86719l1.3672-1.3672c0.21875-0.25 0.53125-0.39453 0.86328-0.40625 0.33203-0.011719 0.65234 0.11719 0.88672 0.35156s0.36328 0.55469 0.35156 0.88672c-0.011719 0.33203-0.16016 0.64453-0.40625 0.86328zm2.4414 8.2812h0.003906c-0.66406 0-1.1992-0.53906-1.1992-1.1992 0-0.66406 0.53516-1.1992 1.1992-1.1992h1.9336c0.66406 0 1.2031 0.53516 1.2031 1.1992 0 0.66016-0.53906 1.1992-1.2031 1.1992zm-4.1328 7.5781h0.003907c-0.25391-0.21484-0.40625-0.53125-0.41797-0.86328-0.011719-0.33594 0.11328-0.66016 0.35156-0.89453 0.23438-0.23828 0.55859-0.36328 0.89453-0.35156 0.33203 0.011719 0.64844 0.16406 0.86328 0.41797l1.3711 1.3633c0.23437 0.22266 0.36719 0.53125 0.375 0.85547 0.003906 0.32422-0.12109 0.63281-0.35156 0.86328-0.22656 0.23047-0.53906 0.35547-0.86328 0.35547-0.32422-0.003907-0.63281-0.14063-0.85547-0.375zm-8.2812 2.4414c-0.023437-0.33203 0.09375-0.65625 0.32031-0.89844 0.22656-0.24219 0.54297-0.37891 0.875-0.37891 0.33203 0 0.64844 0.13672 0.875 0.37891 0.23047 0.24219 0.34375 0.56641 0.32422 0.89844v1.9297c0.019532 0.33203-0.09375 0.65625-0.32422 0.89844-0.22656 0.24219-0.54297 0.37891-0.875 0.37891-0.33203 0-0.64844-0.13672-0.875-0.37891-0.22656-0.24219-0.34375-0.56641-0.32031-0.89844zm1.1992-19.77c3.457 0 6.5742 2.082 7.8984 5.2773 1.3242 3.1953 0.59375 6.875-1.8516 9.3203s-6.125 3.1758-9.3203 1.8516c-3.1953-1.3242-5.2773-4.4414-5.2773-7.8984 0-2.2695 0.90234-4.4414 2.5039-6.0469 1.6055-1.6016 3.7773-2.5039 6.0469-2.5039zm4.3516 4.1992c-1.7617-1.7578-4.4062-2.2852-6.707-1.332-2.2969 0.95312-3.7969 3.1953-3.7969 5.6836s1.5 4.7305 3.7969 5.6836c2.3008 0.95312 4.9453 0.42578 6.707-1.332 1.1523-1.1562 1.8008-2.7188 1.8008-4.3516s-0.64844-3.1953-1.8008-4.3516zm-56.309 16.379c-3.6562-4.3281-0.96484-11.809 4.9062-11.809 0.52344 0 1.043 0.070312 1.5469 0.20312 0.71484-2.1602 2.5742-3.7383 4.8203-4.0898 2.2461-0.35156 4.5 0.58594 5.8359 2.4258 4.4141-1.5703 8.8867 2.3008 8.6016 7.168 1.0352 0.52344 1.8008 1.4688 2.1016 2.5898 0.29688 1.125 0.10547 2.3242-0.53125 3.2969-0.6875 0.97266-1.8086 1.5469-3 1.5312h-21.453c-1.0938 0.007812-2.1328-0.47266-2.8281-1.3125zm0.73438-4.6602h-0.003906c-0.015626 1.1367 0.37109 2.2422 1.0938 3.1172 0.24219 0.30469 0.61328 0.47656 1 0.46094h21.457c0.42188 0.003907 0.81641-0.19531 1.0625-0.53516 0.24609-0.34375 0.3125-0.78125 0.17969-1.1797-0.19141-0.65234-0.69141-1.1641-1.3398-1.3672-0.30859-0.058593-0.58203-0.23828-0.76172-0.5-0.17578-0.26172-0.24219-0.58203-0.18359-0.89062 0.69922-3.7578-2.8164-6.9688-6-5.1484h-0.003906v-0.003907c-0.28516 0.16016-0.625 0.19922-0.9375 0.10156-0.3125-0.09375-0.57422-0.3125-0.72266-0.60547-1.7461-3.4883-6.5078-2.6172-7.1094 1.3828h-0.003906c-0.058594 0.38281-0.29688 0.71484-0.64453 0.89062-0.34766 0.17188-0.75781 0.16797-1.1016-0.019532-1.3906-0.74219-3.0938-0.57031-4.3047 0.4375-1.0938 0.98438-1.7031 2.3906-1.6797 3.8594zm63.301 19.934c-3.0508 1.6797-5-0.88281-6.1875-1.1836-1-0.24609-2.5352 1.1641-5.0391-1.832l-9.9648 12.398 21.328 20.195h14.406c0.34766 0.003906 0.66797-0.17578 0.84766-0.47656 0.17578-0.29688 0.17969-0.66797 0.011719-0.96875zm-9.6953-4.9219c0.32422 0.45312 0.70703 0.85938 1.1367 1.2109 0.78125 0.56641 1.5859-0.125 2.9375 0.21094 1.3242 0.32812 2.5703 1.6289 3.5156 1.6797l0.003906-0.003907c0.33594-0.003906 0.66406-0.097656 0.94922-0.27344l-3.6875-6.7266v0.003907c-0.15625-0.28516-0.44531-0.47266-0.76953-0.5-0.32422-0.027344-0.64062 0.10547-0.84375 0.35938zm-14.074-6.707c-0.5-0.51562-4.1758-4.3359-4.3789-4.4727-0.21484-0.14453-0.47656-0.19531-0.73047-0.14453-0.25391 0.050781-0.47656 0.19922-0.61719 0.41797l-3.6523 5.4336c0.6875 0.31641 0.92969 0.10156 1.8828-0.61719 0.71875-0.66016 1.6211-1.0898 2.5859-1.2383 1.6992-0.13672 3.3008 1.3711 4.4844 0.86719h0.003907c0.14844-0.066407 0.29297-0.14844 0.42578-0.24609z"/>
        </symbol>
        <symbol id="campfire" viewBox="-5.0 -10.0 110.0 135.0">
            <path d="m52.598 55.555c0-0.76953-0.62109-1.3906-1.3906-1.3906h-13.535c4.5-3.7188 7.8125-8.6875 9.5508-14.215 1.2617 4.0391 3.3555 7.8086 6.2266 11.027 0.27344 0.30859 0.65625 0.46484 1.0352 0.46484 0.32812 0 0.66016-0.11719 0.92578-0.35156 0.57422-0.51172 0.62109-1.3906 0.10938-1.9609-4.207-4.7148-6.6016-10.707-6.8594-16.98 3.8945 5.7266 10.547 11.164 11.582 11.992 0.25391 0.20312 0.5625 0.30469 0.86719 0.30469 0.40625 0 0.80859-0.17969 1.0859-0.51953 0.48047-0.59766 0.38281-1.4727-0.21484-1.9531-3.7188-2.9766-13.367-11.828-13.367-16.969l-0.003906-15.613 22.684 27.219c0.48828 0.58594 1.3633 0.66406 1.957 0.17578 0.58984-0.49219 0.66797-1.3672 0.17578-1.957l-25.137-30.164c-0.52734-0.63281-1.6055-0.63281-2.1328 0l-39.211 47.055v-3.1094c0-0.76953-0.62109-1.3906-1.3906-1.3906-0.76563 0-1.3906 0.62109-1.3906 1.3906v6.9453c0 0.58594 0.36719 1.1055 0.91797 1.3047 0.15625 0.054687 0.3125 0.082031 0.47266 0.082031 0.40234 0 0.79687-0.17578 1.0664-0.5l8.6562-10.387v6.7188c0 2.2969 1.8672 4.168 4.168 4.168h31.766c0.76562 0 1.3906-0.62109 1.3906-1.3906zm-17.875-2.5898v-9.2461c1.9219-1.582 7.6172-6.4727 11.09-11.59-0.33984 8.25-4.4727 15.965-11.09 20.84zm-16.668-0.1875v-10.051l27.777-33.336v15.609c0 5.1445-9.6484 13.996-13.367 16.969-0.32812 0.26562-0.51953 0.66406-0.51953 1.0859v11.109h-12.5c-0.76562 0-1.3906-0.62109-1.3906-1.3906z"/>
            <path d="m71.426 79.051c3.1992 0 6.2422-1.2422 8.3906-2.9648 5.0781-4.0664 6.4062-11.789 3.1562-18.367-0.24609-0.49609-0.76172-0.78906-1.3242-0.76953-0.55469 0.03125-1.0391 0.39062-1.2266 0.91406-2.0117 5.5742-6.3789 9.4883-11.391 10.207-3.1211 0.45313-5.8203-0.4375-7.5352-1.2656-0.46094-0.22266-1.0117-0.17188-1.4258 0.13281-0.41406 0.30469-0.625 0.8125-0.55078 1.3242 0.16016 1.0703 1.2109 6.5508 6.2578 9.3438 1.8359 1.0156 3.7695 1.4453 5.6484 1.4453zm-8.457-8.7148c1.8164 0.52734 4.0195 0.83594 6.4531 0.48437 5-0.71875 9.4414-4.0078 12.16-8.8398 1.1055 4.582-0.17578 9.2734-3.5039 11.938-2.6055 2.082-7.1445 3.3672-10.961 1.2578-2.2656-1.2539-3.4922-3.2344-4.1484-4.8398z"/>
            <path d="m91.668 84.723h-8.332c-0.14453 0-0.27734 0.027344-0.41797 0.042969 1.1406-0.63672 2.0586-1.2617 2.6523-1.7188 4.793-3.6641 7.7734-9.1055 8.8633-16.168 1.8008-11.676-4.8047-24.43-17.234-33.289-0.55078-0.39062-1.3086-0.32812-1.7891 0.14844-0.48047 0.48047-0.54297 1.2344-0.14844 1.7891 1.0781 1.5117 3.4609 5.5117 2.3438 9.9688-1.0742 4.2773-5.0742 7.4961-8.3359 8.6719-1.7227 0.62109-2.9648 0.57422-3.3867 0.26562-0.14844-0.10938-1.375-1.2539 0.72656-8.1992 0.16797-0.55078-0.023437-1.1484-0.48047-1.5-0.45703-0.35156-1.082-0.38672-1.5742-0.085937-10.754 6.582-15.773 19.254-11.676 29.48 1.7891 4.4609 5.1758 8.1992 9.3125 10.594h-6.6367c-2.2969 0-4.168 1.8672-4.168 4.168v2.7773c0 2.2969 1.8672 4.168 4.168 4.168h8.332c1.0703 0 2.0391-0.41797 2.7773-1.082 0.73828 0.66797 1.707 1.082 2.7773 1.082h8.332c1.0703 0 2.0391-0.41797 2.7773-1.082 0.73828 0.66797 1.707 1.082 2.7773 1.082h8.332c2.2969 0 4.168-1.8672 4.168-4.168v-2.7773c0-2.2969-1.8672-4.168-4.168-4.168zm-36.211-11.629c-3.1992-7.9844 0.027344-17.73 7.5391-23.93-0.77344 3.9141-0.35938 6.3359 1.2461 7.5117 1.3359 0.97656 3.457 1.0117 5.9727 0.10547 4.0625-1.4688 8.7539-5.3164 10.082-10.613 0.60156-2.3867 0.41406-4.6445-0.09375-6.5859 8.5547 7.8398 12.887 17.758 11.48 26.871-0.97656 6.332-3.6016 11.172-7.8047 14.387-1.4727 1.125-5.0273 3.4375-9.7578 3.8789h-3.1992c-6.7227-0.64062-12.934-5.3086-15.465-11.629zm8.4336 19.961h-8.332c-0.76562 0-1.3906-0.62109-1.3906-1.3906v-2.7773c0-0.76562 0.625-1.3906 1.3906-1.3906h8.332c0.76562 0 1.3906 0.62109 1.3906 1.3906v2.7773c0 0.76563-0.625 1.3906-1.3906 1.3906zm13.887 0h-8.332c-0.76562 0-1.3906-0.62109-1.3906-1.3906v-2.7773c0-0.76562 0.625-1.3906 1.3906-1.3906h1.3789c0.58203 0.050781 1.1523 0.078125 1.707 0.078125 0.46094 0 0.89453-0.046875 1.3359-0.078125h3.9102c0.76562 0 1.3906 0.62109 1.3906 1.3906v2.7773c0 0.76563-0.625 1.3906-1.3906 1.3906zm15.277-1.3867c0 0.76562-0.625 1.3906-1.3906 1.3906h-8.332c-0.76562 0-1.3906-0.62109-1.3906-1.3906v-2.7773c0-0.76562 0.625-1.3906 1.3906-1.3906h8.332c0.76563 0 1.3906 0.62109 1.3906 1.3906z"/>
        </symbol>
        <symbol id="backpack" viewBox="-5.0 -10.0 110.0 135.0">
            <path d="m27.996 37.809c-0.35547-6.2812 0.14062-12.461 1.4805-18.621-2.2812-0.12891-4.5625-0.28125-6.8477-0.45312-2.7422 0.007813-5.2305 1.1055-7.0352 2.8672-3.8906 3.8008-3.8906 9.9102 0 13.711 1.8047 1.7617 4.293 2.8594 7.0352 2.8672 1.7891-0.13672 3.5781-0.25781 5.3672-0.36719zm8.1328-0.40234c-0.30469-6.0117 0.17188-11.957 1.418-17.848-1.7734-0.0625-3.5469-0.13672-5.3203-0.22266-1.3438 6.0195-1.8555 12.16-1.5078 18.32 1.8047-0.097656 3.6094-0.17969 5.4141-0.25zm34.391-18.219c1.3398 6.1602 1.8359 12.344 1.4805 18.621 1.7891 0.10938 3.5781 0.23047 5.3672 0.36719 2.7422-0.007812 5.2305-1.1055 7.0352-2.8672 3.8906-3.8008 3.8906-9.9102 0-13.711-1.8047-1.7617-4.293-2.8594-7.0352-2.8672-2.2812 0.17188-4.5664 0.32422-6.8477 0.45312zm-9.375 18.125c0.30469-5.9453-0.1875-11.844-1.4648-17.672-6.4609 0.17578-12.906 0.17578-19.367 0-1.2734 5.8281-1.7656 11.723-1.4648 17.672 7.4375-0.23047 14.855-0.23047 22.293 0zm1.3047-17.754c1.2461 5.8945 1.7227 11.836 1.418 17.852 1.8047 0.070313 3.6094 0.15234 5.4141 0.25 0.34766-6.1602-0.16406-12.301-1.5078-18.32-1.7734 0.085937-3.5508 0.16016-5.3203 0.22266zm-38.141 21.227c-0.33594 0.92188-0.46484 1.7539-0.46484 2.7656v41.82c0 3.8438 3.2344 6.8945 7.0898 6.8945h38.133c3.8516 0 7.0898-3.0508 7.0898-6.8945v-41.82c0-1.0117-0.13281-1.8477-0.46484-2.7656-17.105-1.2266-34.273-1.2266-51.379 0zm4.5117 44.824v-38.887c0-0.75391 0.60938-1.3633 1.3633-1.3633h39.625c0.75391 0 1.3633 0.60938 1.3633 1.3633v38.887c0 1.1016-1.0508 1.8555-2.1094 1.8555h-38.129c-1.0586 0-2.1094-0.75391-2.1094-1.8555zm2.7266-37.523h36.898v36.652h-36.895v-36.652zm11.273 15.293c0.23047 0.39062-0.027343 0.92578-0.58984 0.92578h-3.7969c-0.42969 0-0.68359-0.32031-0.68359-0.62109h0.003906c0-0.097656 0.027344-0.19922 0.089844-0.30078l1.8984-3.2148c0.26172-0.44141 0.91797-0.44141 1.1758 0l1.8984 3.2148zm0.44531-4.5977 1.8984 3.2148c1.3398 2.2656-0.35156 5.0352-2.9336 5.0352h-3.7969c-1.875 0-3.3984-1.5078-3.3984-3.3477h-0.003906c0-0.57812 0.15625-1.1523 0.47266-1.6836l1.8984-3.2148c0.37109-0.625 0.91406-1.1016 1.5703-1.3828v-1.9727h-2.8867c-0.75391 0-1.3633-0.60938-1.3633-1.3633s0.60938-1.3633 1.3633-1.3633h27.82c0.75391 0 1.3633 0.60938 1.3633 1.3633s-0.60938 1.3633-1.3633 1.3633h-22.207v1.9727c0.65234 0.28125 1.1992 0.75781 1.5703 1.3828zm-13.324-48.734c-0.53125 2.0273-0.63281 4.207-0.54688 6.4062 0.78516 0.046875 1.5703 0.085937 2.3555 0.12891-0.51172-2.2812-1.0938-4.4688-1.8047-6.5352zm14.562 6.957c-0.67969-3.1172-1.5781-6.4414-2.7773-9.2656h-9.7305c1.0703 2.7656 1.8906 5.8359 2.5625 8.9766 3.3125 0.14062 6.6289 0.23828 9.9492 0.28906zm23.5-9.2656h-9.7305c-1.1992 2.8242-2.1016 6.1484-2.7773 9.2656 3.3164-0.050781 6.6328-0.14844 9.9492-0.28906 0.67188-3.1445 1.4922-6.2148 2.5625-8.9766zm2.6016 8.7188c0.085937-2.1992-0.015625-4.3789-0.54688-6.4062-0.71094 2.0664-1.2969 4.2539-1.8047 6.5352 0.78516-0.039063 1.5703-0.082032 2.3555-0.12891zm-17.273-2.1797-0.98438-1.6641c-0.51172-0.86719-1.3359-1.3164-2.3477-1.3164s-1.8359 0.44531-2.3477 1.3164l-0.98438 1.6641c0.21875 0.88281 0.42578 1.8008 0.62891 2.7578h5.4062c0.20312-0.95703 0.41016-1.875 0.62891-2.7578zm4.0859 66.051c-0.75391 0-1.3633-0.60938-1.3633-1.3633s0.60937-1.3633 1.3633-1.3633h4.9492c0.75391 0 1.3633 0.60938 1.3633 1.3633s-0.60938 1.3633-1.3633 1.3633zm-36.301-19.914c-2.0586 0.14844-3.8633 1.5859-4.4102 3.6328l-3.4062 12.719c-0.69922 2.6133 0.86719 5.3242 3.4766 6.0234l4.3438 1.1641v-23.539zm57.766-2.7266c3.2852 0.14844 6.1797 2.4102 7.0508 5.6562l3.4062 12.719c1.0859 4.0586-1.3438 8.2695-5.4023 9.3594l-5.1641 1.3828c-0.72266 4.6875-4.8789 8.1914-9.7031 8.1914l-38.137-0.003906c-4.8281 0-8.9844-3.5039-9.707-8.1914l-5.1562-1.3828c-4.0625-1.0898-6.4922-5.3008-5.4023-9.3594l3.4062-12.719c0.86719-3.2422 3.7578-5.5039 7.043-5.6523v-14.137c0-0.93359 0.10547-1.8164 0.32812-2.7031-6.3906-0.60156-11.496-5.9141-11.496-12.391 0-6.9023 5.7812-12.449 12.711-12.449v0.003907c0.035156 0 0.066406 0 0.10156 0.003906 1.3008 0.097656 2.6016 0.19141 3.9023 0.27344-0.054687-1.6758 0.003907-3.2773 0.22266-4.8086 0.28906-2.0234 0.85938-3.9141 1.8242-5.6875 0.21875-0.46484 0.6875-0.78125 1.2344-0.78125h12.668v0.003906c0.51562 0 1.0078 0.29297 1.2344 0.78906 0.65234 1.4102 1.2617 3.0352 1.832 4.8789 2.1484-2.8125 6.4961-2.8125 8.6445 0 0.57031-1.8398 1.1797-3.4688 1.832-4.8789 0.23047-0.49609 0.72266-0.78906 1.2344-0.78906v-0.003906h12.668c0.54688 0 1.0156 0.32031 1.2344 0.78125 0.96484 1.7734 1.5352 3.6641 1.8242 5.6875 0.21875 1.5312 0.27344 3.1328 0.22266 4.8086 1.2773-0.082031 2.5586-0.17187 3.8359-0.26953 0.054688-0.007812 0.11328-0.011719 0.16797-0.011719 6.9258 0 12.711 5.5469 12.711 12.449 0 6.4766-5.1055 11.793-11.496 12.391 0.22656 0.88672 0.32812 1.7734 0.32812 2.7031v14.137zm0 26.266 4.3516-1.1641c2.6094-0.69922 4.1758-3.4102 3.4766-6.0234l-3.4062-12.719c-0.55078-2.0508-2.3555-3.4844-4.418-3.6328v23.539z" fill-rule="evenodd"/>
        </symbol>
        <symbol id="itinerary" viewBox="-5.0 -10.0 110.0 135.0">
            <path d="m81.25 83.75c-0.9375 0-1.5625 0.625-1.5625 1.5625v5.3125c0 0.9375-0.625 1.5625-1.5625 1.5625h-56.25c-0.9375 0-1.5625-0.625-1.5625-1.5625v-60.938c0-0.9375-0.625-1.5625-1.5625-1.5625s-1.5625 0.625-1.5625 1.5625v60.938c0 2.6562 2.0312 4.6875 4.6875 4.6875h56.25c2.6562 0 4.6875-2.0312 4.6875-4.6875v-5.3125c0-0.78125-0.625-1.5625-1.5625-1.5625z"/>
            <path d="m78.125 4.6875h-56.25c-2.6562 0-4.6875 2.0312-4.6875 4.6875v6.25c0 0.9375 0.625 1.5625 1.5625 1.5625s1.5625-0.625 1.5625-1.5625v-6.25c0-0.9375 0.625-1.5625 1.5625-1.5625h56.25c0.9375 0 1.5625 0.625 1.5625 1.5625v60.938c0 0.9375 0.625 1.5625 1.5625 1.5625s1.5625-0.625 1.5625-1.5625v-60.938c0-2.6562-2.0312-4.6875-4.6875-4.6875z"/>
            <path d="m50 11.875c-7.1875 0-13.125 5.4688-13.125 12.031 0 6.0938 10.625 21.094 11.875 22.812 0.3125 0.46875 0.78125 0.625 1.25 0.625s0.9375-0.3125 1.25-0.625c1.25-1.7188 11.875-16.719 11.875-22.812 0-6.5625-5.9375-12.031-13.125-12.031zm0 31.25c-4.375-6.4062-10-15.625-10-19.219 0-5 4.5312-8.9062 10-8.9062s10 4.0625 10 8.9062c0 3.5938-5.625 12.812-10 19.219z"/>
            <path d="m50 17.5c-3.75 0-6.875 2.9688-6.875 6.4062 0 3.5938 3.125 6.4062 6.875 6.4062s6.875-2.9688 6.875-6.4062-3.125-6.4062-6.875-6.4062zm0 9.8438c-2.0312 0-3.75-1.5625-3.75-3.2812s1.7188-3.2812 3.75-3.2812 3.75 1.5625 3.75 3.2812-1.7188 3.2812-3.75 3.2812z"/>
            <path d="m74.375 56.25c0-0.9375-0.625-1.5625-1.5625-1.5625h-31.562c-0.9375 0-1.5625 0.625-1.5625 1.5625v5.3125c0 0.9375 0.625 1.5625 1.5625 1.5625h31.562c0.9375 0 1.5625-0.625 1.5625-1.5625zm-3.125 3.75h-28.438v-2.1875h28.438z"/>
            <path d="m27.188 63.125h7.1875c0.9375 0 1.5625-0.625 1.5625-1.5625v-5.3125c0-0.9375-0.625-1.5625-1.5625-1.5625h-7.1875c-0.9375 0-1.5625 0.625-1.5625 1.5625v5.3125c0 0.78125 0.625 1.5625 1.5625 1.5625zm1.5625-5.3125h4.0625v2.1875h-4.0625z"/>
            <path d="m74.375 68.75c0-0.9375-0.625-1.5625-1.5625-1.5625h-31.562c-0.9375 0-1.5625 0.625-1.5625 1.5625v5.3125c0 0.9375 0.625 1.5625 1.5625 1.5625h31.562c0.9375 0 1.5625-0.625 1.5625-1.5625zm-3.125 3.75h-28.438v-2.1875h28.438z"/>
            <path d="m25.625 74.062c0 0.9375 0.625 1.5625 1.5625 1.5625h7.1875c0.9375 0 1.5625-0.625 1.5625-1.5625v-5.3125c0-0.9375-0.625-1.5625-1.5625-1.5625h-7.1875c-0.9375 0-1.5625 0.625-1.5625 1.5625zm3.125-3.75h4.0625v2.1875h-4.0625z"/>
            <path d="m72.812 79.688h-31.562c-0.9375 0-1.5625 0.625-1.5625 1.5625v5.3125c0 0.9375 0.625 1.5625 1.5625 1.5625h31.562c0.9375 0 1.5625-0.625 1.5625-1.5625v-5.3125c0-0.9375-0.625-1.5625-1.5625-1.5625zm-1.5625 5.3125h-28.438v-2.1875h28.438z"/>
            <path d="m25.625 86.562c0 0.9375 0.625 1.5625 1.5625 1.5625h7.1875c0.9375 0 1.5625-0.625 1.5625-1.5625v-5.3125c0-0.9375-0.625-1.5625-1.5625-1.5625h-7.1875c-0.9375 0-1.5625 0.625-1.5625 1.5625zm3.125-3.75h4.0625v2.1875h-4.0625z"/>
        </symbol>
        <symbol id="back" viewBox="0 0 52 52">
            <path d="M48.6,23H15.4c-0.9,0-1.3-1.1-0.7-1.7l9.6-9.6c0.6-0.6,0.6-1.5,0-2.1l-2.2-2.2c-0.6-0.6-1.5-0.6-2.1,0
                L2.5,25c-0.6,0.6-0.6,1.5,0,2.1L20,44.6c0.6,0.6,1.5,0.6,2.1,0l2.1-2.1c0.6-0.6,0.6-1.5,0-2.1l-9.6-9.6C14,30.1,14.4,29,15.3,29
                h33.2c0.8,0,1.5-0.6,1.5-1.4v-3C50,23.8,49.4,23,48.6,23z"
            />
        </symbol>
        <symbol id="next" viewBox="0 0 52 52">
            <path d="M3.4,29h33.2c0.9,0,1.3,1.1,0.7,1.7l-9.6,9.6c-0.6,0.6-0.6,1.5,0,2.1l2.2,2.2c0.6,0.6,1.5,0.6,2.1,0L49.5,27
                c0.6-0.6,0.6-1.5,0-2.1L32,7.4c-0.6-0.6-1.5-0.6-2.1,0l-2.1,2.1c-0.6,0.6-0.6,1.5,0,2.1l9.6,9.6c0.6,0.7,0.2,1.8-0.7,1.8H3.5
                C2.7,23,2,23.6,2,24.4v3C2,28.2,2.6,29,3.4,29z"
            />
        </symbol>
        <symbol id="trash" viewBox="0 0 24 24">
            <path d="M4 6H20M16 6L15.7294 5.18807C15.4671 4.40125 15.3359 4.00784 15.0927 3.71698C14.8779 3.46013 14.6021 3.26132 14.2905 3.13878C13.9376 3 13.523 3 12.6936 3H11.3064C10.477 3 10.0624 3 9.70951 3.13878C9.39792 3.26132 9.12208 3.46013 8.90729 3.71698C8.66405 4.00784 8.53292 4.40125 8.27064 5.18807L8 6M18 6V16.2C18 17.8802 18 18.7202 17.673 19.362C17.3854 19.9265 16.9265 20.3854 16.362 20.673C15.7202 21 14.8802 21 13.2 21H10.8C9.11984 21 8.27976 21 7.63803 20.673C7.07354 20.3854 6.6146 19.9265 6.32698 19.362C6 18.7202 6 17.8802 6 16.2V6M14 10V17M10 10V17" stroke="#000000" stroke-width="2" stroke-linecap="round" stroke-linejoin="round"/>
        </symbol>
        <symbol id="home" viewBox="-5.0 -10.0 110.0 135.0">
            <path d="m60.777 69.227v27.113h-21.57v-27.113c0-1.2305 1-2.1992 2.1992-2.1992h17.172c1.2266 0 2.1992 0.96875 2.1992 2.1992zm25.57-13.656-36.34-28.66-36.344 28.66c-0.39844 0.3125-0.85547 0.60156-1.3125 0.82813v34.715c0 2.8867 2.3125 5.2305 5.1992 5.2305h18.801l-0.003906-27.117c0-2.8008 2.2852-5.0586 5.0586-5.0586h17.172c2.8008 0 5.0586 2.2578 5.0586 5.0586v27.113h18.828c2.8555 0 5.1992-2.3438 5.1992-5.2305v-34.711c-0.45703-0.23047-0.91406-0.51563-1.3164-0.82813zm11.91-15.121-45.43-35.809c-1.6602-1.3086-4-1.3086-5.6602 0l-45.426 35.809c-1.9805 1.5625-2.3242 4.4375-0.76172 6.418l4.4844 5.6914c1.5625 1.9805 4.4375 2.3242 6.418 0.76172l38.113-30.043 38.113 30.043c1.9805 1.5625 4.8555 1.2227 6.418-0.76172l4.4844-5.6914c1.5703-1.9844 1.2305-4.8555-0.75391-6.418z"/>
        </symbol>
        <symbol id="check" viewBox="-5.0 -10.0 110.0 135.0">
            <path d="m34.422 67.207 52.734-52.734c0.75-0.75 1.9688-0.75 2.7188 0l7.0625 7.0625c0.75 0.75 0.75 1.9648 0 2.7188l-61.16 61.273c-0.75 0.75-1.9648 0.75391-2.7188 0.003906l-29.992-29.887c-0.75391-0.75-0.75391-1.9688-0.003906-2.7188l7.1797-7.1797c0.75-0.75 1.9688-0.75 2.7188 0z" fill-rule="evenodd"/>
        </symbol>
  </defs>
</svg>