<svg xmlns="http://www.w3.org/2000/svg" version="1.1" viewBox="-5.0 -10.0 110.0 135.0">
 <path d="m94.977 92.75-10.914-54.508c-0.125-0.64844-0.6875-1.1211-1.3477-1.1328h-45.559c3.2617-5.3867 6.418-11.977 6.418-17.316-0.12109-7.9609-6.6758-14.32-14.637-14.195-7.7891 0.11719-14.078 6.4062-14.195 14.195 0 5.3398 3.1562 11.934 6.3945 17.316h-3.8633c-0.66016 0.011719-1.2227 0.48438-1.3477 1.1328l-10.898 54.508c-0.082032 0.40234 0.023437 0.81641 0.28516 1.1328 0.25 0.32813 0.63672 0.52344 1.0508 0.52734h87.27c0.78125-0.023437 1.3945-0.67969 1.3672-1.4609-0.003906-0.066407-0.011719-0.13281-0.023438-0.19922zm-10.652-39.254 2.1875 10.93-15.602-0.003906-1.1328-10.93zm-54.367 2.5391v0.011719l-0.67188 6.5156-0.35938 3.4805c-5.3008-2.1211-2.7148-9.4609-0.98828-12.586h2.3164zm-0.78906-5.6602c-2.8164 0.003906-4.7773-1.4492-4.7773-2.7461 0-0.84766 0.89062-1.7773 2.3281-2.3047 1.2852 1.5156 1.1445 2.1523 2.4492 2.3047 1.2812-0.16016 1.1328-0.79688 2.4453-2.3047 4.2695 1.6445 2.0195 5.0156-2.4453 5.0508zm2.8242 12.469 0.67187-6.5156 0.20703-2.8711h15.77v10.098c-0.3125-0.16797-0.64062-0.32813-1.0039-0.48047-6.8398-2.8164-10.082 4.3555-16.051 3.7266zm49.602-22.988 2.1836 10.887h-14.285l-1.1094-10.887zm-12.586 32.887c-3.9766 0.15234-7.2773 3.4141-11.555 2.5078-4.2773-1.3906-3.7344-4.9375-5.2695-8.1016h16.258zm-0.82812-8.3203h-16.805v-10.926h15.672zm-16.816-24.566h14.285l1.1133 10.887h-15.398zm-2.7188-0.035157v10.887h-13.355c2.1055-2.2695 2.0938-5.6367-2.0234-7.6445 0.67188-0.97656 1.418-2.0625 2.2031-3.2422zm-31.188-20.031c0.007813-6.4648 5.25-11.695 11.711-11.699 6.4492 0.023437 11.664 5.25 11.676 11.699 0 8.0781-8.6211 20.23-11.676 24.238-3.0547-4.0078-11.711-16.145-11.711-24.238zm0.94531 20.051h4.4727c0.76953 1.1797 1.5195 2.2656 2.1836 3.2422-4.7148 2.0195-4.3789 7.4961 0.40625 9.2656-1.2578 2.4258-3.3203 7.2461-2.1055 11.25 0.085937 0.28125 0.17969 0.55469 0.29297 0.81641h-3.6094-0.03125-6.5273zm7.8711 51.816h-18.242l2.1758-10.883h17.203zm1.3945-13.629h-16.914l2.1875-10.887h7.0703l5.7383 0.089844c0.63672 0.53516 1.375 0.99609 2.2266 1.3867 0.22266 0.097656 0.4375 0.17187 0.65234 0.25391l-0.43359 4.1797zm20.965 13.629h-19.625l1.1328-10.883h18.496zm2.7305 0v-12.262c-0.007812-0.75781-0.62109-1.3672-1.3789-1.375h-19.562l0.50391-4.6914 0.39062-3.8125c3.457 0.36719 6.1211-1.1719 8.3789-2.4766 2.6914-1.5781 4.4727-2.4727 6.8594-1.4609 2.9766 1.3008 3.5234 3.2031 4.1523 5.4258 1.25 6.4922 7.5703 8.9844 13.859 5.7461 3.2773-1.3477 5.9258-2.4258 9.5898 1.293-6.4648 3.0898-2.8984 10.195 4.0859 10.035 10.977-0.39844 9.1719-11.902-1.1328-10.844-2.0391-2.3164-3.8398-3.5469-5.4883-4.1094 0.097656-2.2031-0.39453-5.207-0.42578-5.9766l15.855 0.003906 4.8984 24.523zm26.871-11.773v-0.011718c6.2812 0.21094 6.3164 5.2734 0 5.4648-6.3125-0.16797-6.2773-5.2422 0-5.4531zm-42.512-59.973c-0.20312-8.6602-12.918-8.6406-13.129 0 0.25 8.6328 12.898 8.6484 13.129 0zm-6.5547 3.8438c-5.0703-0.14062-5.0703-7.5508 0-7.6914 5.0625 0.15625 5.0625 7.5391 0 7.6914z"/>
</svg>